<svg width="272" height="86" viewBox="0 0 272 86" fill="none" xmlns="http://www.w3.org/2000/svg">
<g clip-path="url(#clip0_2_1745)">
<path d="M34.0243 30.7971V39.9008H55.9943C55.411 44.937 53.6612 48.8109 50.9393 51.329C47.8285 54.4281 42.7734 57.9147 34.0243 57.9147C20.609 57.9147 10.1101 47.0676 10.1101 33.7025C10.1101 20.3374 20.4146 9.49042 34.0243 9.49042C41.218 9.49042 46.6619 12.3959 50.5504 16.0761L56.9664 9.68411C51.5225 4.45429 44.1344 0.386658 34.0243 0.386658C15.554 0.386658 0 15.3013 0 33.7025C0 52.1038 15.554 67.0184 34.0243 67.0184C43.94 67.0184 51.5225 63.7256 57.3553 57.721C63.3824 51.7164 65.3267 43.1937 65.3267 36.4143C65.3267 34.2836 65.1322 32.3467 64.9378 30.7971H34.0243Z" fill="#4285F4"/>
<path d="M92.5461 23.2429C80.6862 23.2429 70.7706 32.3467 70.7706 44.7433C70.7706 57.1399 80.4918 66.2436 92.5461 66.2436C104.6 66.2436 114.322 57.3336 114.322 44.937C114.322 32.3467 104.6 23.2429 92.5461 23.2429ZM92.5461 57.9147C85.9357 57.9147 80.2974 52.4911 80.2974 44.937C80.2974 37.1891 85.9357 31.9593 92.5461 31.9593C99.1566 31.9593 104.795 37.1891 104.795 44.937C104.795 52.4911 99.1566 57.9147 92.5461 57.9147Z" fill="#EA4335"/>
<path d="M198.896 28.0853H198.507C196.369 25.5673 192.286 23.2429 187.036 23.2429C176.149 23.2429 166.816 32.5404 166.816 44.7433C166.816 56.7525 176.149 66.2436 187.036 66.2436C192.286 66.2436 196.369 63.9193 198.507 61.4012H198.896V64.5004C198.896 72.6356 194.425 77.0907 187.425 77.0907C181.593 77.0907 178.093 73.023 176.538 69.3428L168.372 72.8293C170.705 78.4465 177.121 85.6133 187.62 85.6133C198.702 85.6133 208.229 79.0276 208.229 63.1445V24.4051H199.285V28.0853H198.896ZM188.009 57.9147C181.398 57.9147 176.538 52.2975 176.538 44.937C176.538 37.3828 181.593 31.9593 188.009 31.9593C194.425 31.9593 199.48 37.5765 199.48 45.1307C199.674 52.4911 194.619 57.9147 188.009 57.9147Z" fill="#4285F4"/>
<path d="M140.958 23.2429C129.098 23.2429 119.182 32.3467 119.182 44.7433C119.182 57.1399 128.903 66.2436 140.958 66.2436C153.012 66.2436 162.733 57.3336 162.733 44.937C162.733 32.3467 153.012 23.2429 140.958 23.2429ZM140.958 57.9147C134.347 57.9147 128.709 52.4911 128.709 44.937C128.709 37.1891 134.347 31.9593 140.958 31.9593C147.568 31.9593 153.207 37.1891 153.207 44.937C153.207 52.4911 147.568 57.9147 140.958 57.9147Z" fill="#FBBC05"/>
<path d="M215.422 1.35515H224.755V66.4373H215.422V1.35515Z" fill="#34A853"/>
<path d="M253.53 57.9147C248.669 57.9147 245.364 55.784 243.031 51.329L272 39.5135L271.028 36.9954C269.278 32.153 263.64 23.2429 252.558 23.2429C241.475 23.2429 232.143 31.9593 232.143 44.7433C232.143 56.7525 241.281 66.2436 253.53 66.2436C263.445 66.2436 269.084 60.239 271.611 56.7525L264.223 51.9101C261.695 55.5903 258.39 57.9147 253.53 57.9147ZM252.946 31.3782C256.835 31.3782 260.14 33.3151 261.112 36.0269L241.67 44.1622C241.475 35.2521 248.086 31.3782 252.946 31.3782Z" fill="#EA4335"/>
</g>
<defs>
<clipPath id="clip0_2_1745">
<rect width="272" height="85.2267" fill="white" transform="translate(0 0.386658)"/>
</clipPath>
</defs>
</svg>
