<svg width="552" height="25" viewBox="0 0 552 25" fill="none" xmlns="http://www.w3.org/2000/svg">
<g clip-path="url(#clip0_102_114)">
<path d="M12.9167 13.8933H12.2583L12.025 13.6683C13.025 12.5017 13.5417 10.91 13.2583 9.21834C12.8667 6.90167 10.9333 5.05167 8.6 4.76834C5.075 4.335 2.10834 7.30167 2.54167 10.8267C2.825 13.16 4.675 15.0933 6.99167 15.485C8.68334 15.7683 10.275 15.2517 11.4417 14.2517L11.6667 14.485V15.1433L15.2083 18.685C15.55 19.0267 16.1083 19.0267 16.45 18.685C16.7917 18.3433 16.7917 17.785 16.45 17.4433L12.9167 13.8933ZM7.91667 13.8933C5.84167 13.8933 4.16667 12.2183 4.16667 10.1433C4.16667 8.06834 5.84167 6.39334 7.91667 6.39334C9.99167 6.39334 11.6667 8.06834 11.6667 10.1433C11.6667 12.2183 9.99167 13.8933 7.91667 13.8933Z" fill="#9AA0A6"/>
</g>
<path d="M500 15.2267C501.66 15.2267 503 13.9167 503 12.2567V5.23667C503 3.57667 501.66 2.22667 500 2.22667C498.34 2.22667 497 3.56667 497 5.23667V12.2567C497 13.9167 498.34 15.2267 500 15.2267Z" fill="#4285F4"/>
<path d="M499 18.3067H501V22.2267H499V18.3067Z" fill="#34A853"/>
<path d="M495.05 17.0967C493.78 15.7667 493 14.2667 493 12.2267H495C495 13.6767 495.56 14.6467 496.47 15.6067V15.9267L495.32 17.1067L495.05 17.0967Z" fill="#FBBC05"/>
<path d="M500 17.1567C499.342 17.1586 498.691 17.0226 498.083 16.7566C497.475 16.4905 496.924 16.0996 496.46 15.6067L495.05 17.0967C496.31 18.4367 498.07 19.2267 500 19.2267C503.87 19.2267 506.99 16.3067 506.99 12.2267H505C505 15.1467 502.76 17.1567 500 17.1567Z" fill="#EA4335"/>
<g clip-path="url(#clip1_102_114)">
<path d="M540 16.7454C541.933 16.7454 543.5 15.1784 543.5 13.2454C543.5 11.3124 541.933 9.74542 540 9.74542C538.067 9.74542 536.5 11.3124 536.5 13.2454C536.5 15.1784 538.067 16.7454 540 16.7454Z" fill="#4285F4"/>
<path d="M548 9.22667V14.2454V17.2267C548 17.4379 547.957 17.6379 547.897 17.8292C547.701 18.4442 547.219 18.9267 546.604 19.1229C546.413 19.1842 546.212 19.2254 546.001 19.2254H536.25L538.25 21.2254H544.5H546C546.552 21.2254 547.079 21.1129 547.558 20.9117C548.036 20.7092 548.468 20.4167 548.829 20.0542C549.01 19.8729 549.174 19.6754 549.317 19.4617C549.605 19.0367 549.813 18.5517 549.919 18.0317C549.973 17.7717 550 17.5017 550 17.2254V15.7254V12.2454V10.7267L549.25 8.35167L547.897 8.62417C547.957 8.81542 548 9.01542 548 9.22667Z" fill="#EA4335"/>
<path d="M532 9.22667C532 9.01542 532.043 8.81542 532.102 8.62417C532.299 8.00917 532.781 7.52667 533.396 7.33042C533.589 7.26917 533.789 7.22667 534 7.22667H546C546.211 7.22667 546.411 7.26917 546.603 7.32917L546.625 5.85167L544.5 5.22667L542.5 3.22667H540.82H540H539.18H537.5L535.5 5.22667H534C531.791 5.22667 530 7.01792 530 9.22667V10.7267V13.2267L532 15.2267V9.22667Z" fill="#4285F4"/>
<path d="M546 5.22667H544.5L546.604 7.33042C546.758 7.37917 546.903 7.44667 547.038 7.52917C547.308 7.69417 547.534 7.92042 547.699 8.19042C547.781 8.32542 547.849 8.47042 547.897 8.62417L550 10.7267V9.22667C550 7.01792 548.209 5.22667 546 5.22667Z" fill="#34A853"/>
<path d="M534 21.2267H538.986L536.986 19.2267H534C532.898 19.2267 532 18.3292 532 17.2267V14.2404L530 12.2404V17.2267C530 19.4354 531.791 21.2267 534 21.2267Z" fill="#FBBC04"/>
</g>
<defs>
<clipPath id="clip0_102_114">
<rect width="20" height="20" fill="white" transform="translate(0 2.22667)"/>
</clipPath>
<clipPath id="clip1_102_114">
<rect width="24" height="24" fill="white" transform="translate(528 0.226669)"/>
</clipPath>
</defs>
</svg>
